<?xml version="1.0" standalone="no"?>
<!DOCTYPE svg PUBLIC "-//W3C//DTD SVG 20010904//EN"
 "http://www.w3.org/TR/2001/REC-SVG-20010904/DTD/svg10.dtd">
<svg version="1.0" xmlns="http://www.w3.org/2000/svg"
 width="700.000000pt" height="700.000000pt" viewBox="0 0 700.000000 700.000000"
 preserveAspectRatio="xMidYMid meet">
<metadata>
Created by potrace 1.11, written by Peter Selinger 2001-2013
</metadata>
<g transform="translate(0.000000,700.000000) scale(0.100000,-0.100000)"
fill="#000000" stroke="none">
<path d="M3205 6994 c-16 -2 -73 -9 -125 -15 -383 -42 -793 -165 -1151 -344
-660 -331 -1211 -878 -1548 -1535 -197 -383 -320 -796 -367 -1229 -20 -193
-15 -661 10 -836 115 -802 466 -1495 1038 -2051 541 -526 1209 -850 1980 -961
177 -25 739 -25 916 0 671 97 1224 336 1757 761 132 105 408 383 519 521 336
421 580 933 690 1445 61 285 70 379 71 745 0 357 -6 426 -56 685 -239 1229
-1149 2259 -2339 2648 -388 127 -620 163 -1060 167 -168 2 -318 1 -335 -1z
m2455 -3494 l0 -1730 -2160 0 -2160 0 0 1730 0 1730 2160 0 2160 0 0 -1730z"/>
<path d="M3728 4427 c-239 -73 -401 -270 -415 -507 -2 -47 -1 -102 4 -124 l8
-39 150 149 c83 82 167 169 188 192 22 25 63 55 95 70 49 23 70 27 147 27 108
0 159 -20 234 -90 97 -91 125 -230 69 -345 -33 -68 -46 -83 -129 -145 -83 -62
-303 -274 -294 -283 4 -4 59 -7 123 -7 144 0 230 25 339 97 85 58 140 118 188
209 159 302 7 668 -326 786 -108 38 -273 43 -381 10z m322 -42 c280 -74 454
-354 385 -618 -60 -229 -273 -397 -504 -397 l-49 0 102 99 c55 54 115 105 132
114 39 20 107 94 134 146 71 140 36 309 -87 421 -76 70 -144 94 -263 94 -87 0
-101 -2 -162 -32 -46 -23 -81 -49 -115 -88 -26 -30 -95 -102 -153 -159 l-105
-103 -3 36 c-2 20 2 62 8 92 40 186 192 341 386 395 66 18 226 18 294 0z"/>
<path d="M3675 4002 c-17 -11 -182 -163 -367 -340 -361 -345 -371 -357 -348
-426 12 -39 205 -231 246 -246 39 -15 86 -12 119 8 17 11 181 163 367 340 361
345 371 357 348 427 -12 38 -206 230 -247 246 -38 14 -85 10 -118 -9z m211
-134 c57 -56 107 -112 110 -124 3 -12 0 -33 -8 -46 -7 -13 -165 -169 -351
-346 -412 -392 -366 -373 -523 -220 -57 56 -107 112 -110 124 -3 12 0 33 8 46
7 14 165 169 351 346 411 393 365 373 523 220z"/>
<path d="M2933 3661 c-166 -45 -297 -151 -374 -303 -152 -301 7 -664 341 -778
91 -31 234 -38 333 -16 255 57 440 269 454 521 3 44 1 97 -4 119 l-8 39 -140
-134 c-77 -74 -153 -153 -168 -176 -57 -85 -178 -139 -296 -131 -84 6 -147 34
-210 93 -66 62 -95 129 -95 220 0 118 41 185 170 282 71 52 287 263 279 271
-4 4 -52 8 -108 9 -75 2 -121 -2 -174 -16z m92 -122 c-50 -50 -109 -102 -132
-115 -58 -35 -120 -106 -151 -172 -37 -81 -37 -193 0 -274 116 -252 457 -307
635 -102 26 31 95 102 153 159 l105 103 3 -31 c5 -49 -17 -146 -48 -212 -140
-292 -542 -389 -817 -196 -110 77 -175 171 -208 298 -80 306 172 627 495 632
l55 1 -90 -91z"/>
</g>
</svg>
