<svg width="800" height="800" xmlns="http://www.w3.org/2000/svg">
 <!-- Created with Method Draw - http://github.com/duopixel/Method-Draw/ -->
 <g>
  <title>background</title>
  <rect fill="none" id="canvas_background" height="802" width="802" y="-1" x="-1"/>
 </g>
 <g>
  <title>Layer 1</title>
  <ellipse ry="400" rx="400" id="svg_1" cy="399.999986" cx="400.000003" stroke-width="1.5" stroke="#000" fill="#3f51b5"/>
  <rect id="svg_6" height="400" width="500" y="200" x="149.999997" stroke-width="5" stroke="#000000" fill="#448aff"/>
  <path stroke="#000000" id="svg_9" d="m399.984773,312.055349c-15.173992,14.452227 -21.084997,34.179295 -18.246638,52.94574l28.131368,-26.77736c0.036041,-0.042876 0.12615,-0.068615 0.144178,-0.102922c1.892234,-3.456515 4.180946,-6.767231 7.226558,-9.657674c15.98496,-15.232729 41.908704,-15.22416 57.920699,0c15.993967,15.206991 16.011995,39.900134 0.018028,55.141432c-3.06364,2.916181 -6.550778,5.086167 -10.191083,6.895908c-0.036057,0.017154 -0.054069,0.051461 -0.090109,0.085769l-28.140374,26.785929c19.715375,2.71032 40.476007,-2.916181 55.649999,-17.351254c25.518259,-24.290023 25.500247,-63.66696 0,-87.956983c-25.536287,-24.290039 -66.904351,-24.290039 -92.422626,-0.008585zm-10.001858,149.805648c-1.883228,3.473669 -4.162934,6.784385 -7.217552,9.700566c-15.993967,15.215576 -41.953767,15.215576 -57.947733,0c-15.993967,-15.215576 -15.993967,-39.908719 0,-55.150017c3.054618,-2.899027 6.532749,-5.068997 10.164048,-6.861585c0.036057,-0.051477 0.045063,-0.102938 0.099132,-0.137246l28.122346,-26.785929c-19.706369,-2.71032 -40.448973,2.933335 -55.613958,17.359823c-25.509253,24.281454 -25.500247,63.666976 0,87.956999c25.527281,24.281454 66.895344,24.281454 92.42261,0c15.174008,-14.443642 21.103041,-34.187864 18.228626,-52.962893l-28.158403,26.785929c-0.027034,0.060046 -0.063075,0.0772 -0.099116,0.094353zm-46.098672,-27.291972l19.796479,18.843644c4.838746,4.60583 12.768152,4.60583 17.597876,0l74.806721,-71.206141c4.856759,-4.597278 4.856759,-12.153596 0.018012,-16.742289l-19.814491,-18.843628c-4.829724,-4.623 -12.759129,-4.623 -17.58887,-0.017154l-74.806721,71.21471c-4.847736,4.605846 -4.847736,12.153596 -0.009006,16.750858z" stroke-width="5" fill="#448aff"/>
 </g>
</svg>